REM DIRINDEX 1\2\4,1\2\5,1\3\6,1\3\7
REM DIRNAME folder01,folder02,folder03,folder04,folder05,folder06,folder07
TITLE ""
FILE "bunpo2_02.mp3" MP3
  TRACK 01 AUDIO
    TITLE "7:cjc099_106"
    INDEX 01 00:00:00
  TRACK 02 AUDIO
    TITLE "0:"
    INDEX 01 00:01:36
  TRACK 03 AUDIO
    TITLE "7:cjc099_107"
    INDEX 01 00:02:08
  TRACK 04 AUDIO
    TITLE "0:"
    INDEX 01 00:03:29
  TRACK 05 AUDIO
    TITLE "6:cjc099_108"
    INDEX 01 00:03:49
  TRACK 06 AUDIO
    TITLE "0:"
    INDEX 01 00:11:52
  TRACK 07 AUDIO
    TITLE "5:cjc099_109"
    INDEX 01 00:12:24
  TRACK 08 AUDIO
    TITLE "0:"
    INDEX 01 00:13:47
  TRACK 09 AUDIO
    TITLE "4:cjc099_110"
    INDEX 01 00:13:69
  TRACK 10 AUDIO
    TITLE "0:"
    INDEX 01 00:22:50
  TRACK 11 AUDIO
    TITLE "7:cjc099_111"
    INDEX 01 00:24:20
  TRACK 12 AUDIO
    TITLE "0:"
    INDEX 01 00:25:29
  TRACK 13 AUDIO
    TITLE "6:cjc099_112"
    INDEX 01 00:25:50
  TRACK 14 AUDIO
    TITLE "0:"
    INDEX 01 00:32:64
  TRACK 15 AUDIO
    TITLE "5:cjc099_113"
    INDEX 01 00:33:34
  TRACK 16 AUDIO
    TITLE "0:"
    INDEX 01 00:34:55
  TRACK 17 AUDIO
    TITLE "4:cjc099_114"
    INDEX 01 00:35:02
  TRACK 18 AUDIO
    TITLE "0:"
    INDEX 01 00:42:41
  TRACK 19 AUDIO
    TITLE "7:cjc099_115"
    INDEX 01 00:44:11
  TRACK 20 AUDIO
    TITLE "0:"
    INDEX 01 00:45:35
  TRACK 21 AUDIO
    TITLE "6:cjc099_116"
    INDEX 01 00:45:57
  TRACK 22 AUDIO
    TITLE "0:"
    INDEX 01 00:53:11
  TRACK 23 AUDIO
    TITLE "5:cjc099_117"
    INDEX 01 00:53:55
  TRACK 24 AUDIO
    TITLE "0:"
    INDEX 01 00:55:12
  TRACK 25 AUDIO
    TITLE "4:cjc099_118"
    INDEX 01 00:55:32
  TRACK 26 AUDIO
    TITLE "0:"
    INDEX 01 01:03:18
  TRACK 27 AUDIO
    TITLE "7:cjc099_119"
    INDEX 01 01:04:62
  TRACK 28 AUDIO
    TITLE "0:"
    INDEX 01 01:06:16
  TRACK 29 AUDIO
    TITLE "6:cjc099_120"
    INDEX 01 01:06:36
  TRACK 30 AUDIO
    TITLE "0:"
    INDEX 01 01:13:57
  TRACK 31 AUDIO
    TITLE "5:cjc099_121"
    INDEX 01 01:14:29
  TRACK 32 AUDIO
    TITLE "0:"
    INDEX 01 01:15:48
  TRACK 33 AUDIO
    TITLE "4:cjc099_122"
    INDEX 01 01:15:72
  TRACK 34 AUDIO
    TITLE "0:"
    INDEX 01 01:23:32
  TRACK 35 AUDIO
    TITLE "7:cjc099_123"
    INDEX 01 01:25:02
  TRACK 36 AUDIO
    TITLE "0:"
    INDEX 01 01:26:38
  TRACK 37 AUDIO
    TITLE "6:cjc099_124"
    INDEX 01 01:26:56
  TRACK 38 AUDIO
    TITLE "0:"
    INDEX 01 01:31:30
  TRACK 39 AUDIO
    TITLE "5:cjc099_125"
    INDEX 01 01:32:02
  TRACK 40 AUDIO
    TITLE "0:"
    INDEX 01 01:33:33
  TRACK 41 AUDIO
    TITLE "4:cjc099_126"
    INDEX 01 01:33:50
  TRACK 42 AUDIO
    TITLE "0:"
    INDEX 01 01:38:49
  TRACK 43 AUDIO
    TITLE "7:cjc099_127"
    INDEX 01 01:40:19
  TRACK 44 AUDIO
    TITLE "0:"
    INDEX 01 01:41:48
  TRACK 45 AUDIO
    TITLE "6:cjc099_128"
    INDEX 01 01:41:69
  TRACK 46 AUDIO
    TITLE "0:"
    INDEX 01 01:49:33
  TRACK 47 AUDIO
    TITLE "5:cjc099_129"
    INDEX 01 01:50:04
  TRACK 48 AUDIO
    TITLE "0:"
    INDEX 01 01:51:34
  TRACK 49 AUDIO
    TITLE "4:cjc099_130"
    INDEX 01 01:51:66
  TRACK 50 AUDIO
    TITLE "0:"
    INDEX 01 02:00:02
  TRACK 51 AUDIO
    TITLE "7:cjc099_131"
    INDEX 01 02:01:48
  TRACK 52 AUDIO
    TITLE "0:"
    INDEX 01 02:02:69
  TRACK 53 AUDIO
    TITLE "6:cjc099_132"
    INDEX 01 02:03:12
  TRACK 54 AUDIO
    TITLE "0:"
    INDEX 01 02:09:69
  TRACK 55 AUDIO
    TITLE "5:cjc099_133"
    INDEX 01 02:10:42
  TRACK 56 AUDIO
    TITLE "0:"
    INDEX 01 02:11:70
  TRACK 57 AUDIO
    TITLE "4:cjc099_134"
    INDEX 01 02:12:13
  TRACK 58 AUDIO
    TITLE "0:"
    INDEX 01 02:19:37
  TRACK 59 AUDIO
    TITLE "7:cjc099_135"
    INDEX 01 02:21:04
  TRACK 60 AUDIO
    TITLE "0:"
    INDEX 01 02:22:29
  TRACK 61 AUDIO
    TITLE "6:cjc099_136"
    INDEX 01 02:22:49
  TRACK 62 AUDIO
    TITLE "0:"
    INDEX 01 02:29:00
  TRACK 63 AUDIO
    TITLE "5:cjc099_137"
    INDEX 01 02:29:47
  TRACK 64 AUDIO
    TITLE "0:"
    INDEX 01 02:30:68
  TRACK 65 AUDIO
    TITLE "4:cjc099_138"
    INDEX 01 02:31:12
  TRACK 66 AUDIO
    TITLE "0:"
    INDEX 01 02:38:05
  TRACK 67 AUDIO
    TITLE "7:cjc099_139"
    INDEX 01 02:39:51
  TRACK 68 AUDIO
    TITLE "0:"
    INDEX 01 02:41:03
  TRACK 69 AUDIO
    TITLE "6:cjc099_140"
    INDEX 01 02:41:24
  TRACK 70 AUDIO
    TITLE "0:"
    INDEX 01 02:48:52
  TRACK 71 AUDIO
    TITLE "5:cjc099_141"
    INDEX 01 02:49:24
  TRACK 72 AUDIO
    TITLE "0:"
    INDEX 01 02:50:51
  TRACK 73 AUDIO
    TITLE "4:cjc099_142"
    INDEX 01 02:50:74
  TRACK 74 AUDIO
    TITLE "0:"
    INDEX 01 02:58:39
  TRACK 75 AUDIO
    TITLE "7:cjc099_143"
    INDEX 01 03:00:12
  TRACK 76 AUDIO
    TITLE "0:"
    INDEX 01 03:01:35
  TRACK 77 AUDIO
    TITLE "6:cjc099_144"
    INDEX 01 03:01:57
  TRACK 78 AUDIO
    TITLE "0:"
    INDEX 01 03:09:29
  TRACK 79 AUDIO
    TITLE "5:cjc099_145"
    INDEX 01 03:09:74
  TRACK 80 AUDIO
    TITLE "0:"
    INDEX 01 03:11:22
  TRACK 81 AUDIO
    TITLE "4:cjc099_146"
    INDEX 01 03:11:41
  TRACK 82 AUDIO
    TITLE "0:"
    INDEX 01 03:19:02
  TRACK 83 AUDIO
    TITLE "7:cjc099_147"
    INDEX 01 03:20:46
  TRACK 84 AUDIO
    TITLE "0:"
    INDEX 01 03:22:08
  TRACK 85 AUDIO
    TITLE "6:cjc099_148"
    INDEX 01 03:22:25
  TRACK 86 AUDIO
    TITLE "0:"
    INDEX 01 03:29:00
  TRACK 87 AUDIO
    TITLE "5:cjc099_149"
    INDEX 01 03:29:43
  TRACK 88 AUDIO
    TITLE "0:"
    INDEX 01 03:30:72
  TRACK 89 AUDIO
    TITLE "4:cjc099_150"
    INDEX 01 03:31:22
  TRACK 90 AUDIO
    TITLE "0:"
    INDEX 01 03:38:36
  TRACK 91 AUDIO
    TITLE "7:cjc099_151"
    INDEX 01 03:40:06
  TRACK 92 AUDIO
    TITLE "0:"
    INDEX 01 03:41:33
  TRACK 93 AUDIO
    TITLE "6:cjc099_152"
    INDEX 01 03:41:54
  TRACK 94 AUDIO
    TITLE "0:"
    INDEX 01 03:47:47
  TRACK 95 AUDIO
    TITLE "5:cjc099_153"
    INDEX 01 03:48:21
  TRACK 96 AUDIO
    TITLE "0:"
    INDEX 01 03:49:52
  TRACK 97 AUDIO
    TITLE "4:cjc099_154"
    INDEX 01 03:49:71
  TRACK 98 AUDIO
    TITLE "0:"
    INDEX 01 03:56:18
  TRACK 99 AUDIO
    TITLE "7:cjc099_155"
    INDEX 01 03:57:65
  TRACK 100 AUDIO
    TITLE "0:"
    INDEX 01 03:59:28
  TRACK 101 AUDIO
    TITLE "6:cjc099_156"
    INDEX 01 03:59:52
  TRACK 102 AUDIO
    TITLE "0:"
    INDEX 01 04:04:53
  TRACK 103 AUDIO
    TITLE "5:cjc099_157"
    INDEX 01 04:05:23
  TRACK 104 AUDIO
    TITLE "0:"
    INDEX 01 04:06:66
  TRACK 105 AUDIO
    TITLE "4:cjc099_158"
    INDEX 01 04:07:14
  TRACK 106 AUDIO
    TITLE "0:"
    INDEX 01 04:12:13
  TRACK 107 AUDIO
    TITLE "7:cjc099_159"
    INDEX 01 04:13:58
  TRACK 108 AUDIO
    TITLE "0:"
    INDEX 01 04:15:24
  TRACK 109 AUDIO
    TITLE "6:cjc099_160"
    INDEX 01 04:15:37
  TRACK 110 AUDIO
    TITLE "0:"
    INDEX 01 04:19:57
  TRACK 111 AUDIO
    TITLE "5:cjc099_161"
    INDEX 01 04:20:27
  TRACK 112 AUDIO
    TITLE "0:"
    INDEX 01 04:21:69
  TRACK 113 AUDIO
    TITLE "4:cjc099_162"
    INDEX 01 04:22:16
  TRACK 114 AUDIO
    TITLE "0:"
    INDEX 01 04:26:39
  TRACK 115 AUDIO
    TITLE "7:cjc099_163"
    INDEX 01 04:28:11
  TRACK 116 AUDIO
    TITLE "0:"
    INDEX 01 04:29:49
  TRACK 117 AUDIO
    TITLE "6:cjc099_164"
    INDEX 01 04:29:71
  TRACK 118 AUDIO
    TITLE "0:"
    INDEX 01 04:38:29
  TRACK 119 AUDIO
    TITLE "5:cjc099_165"
    INDEX 01 04:39:08
  TRACK 120 AUDIO
    TITLE "0:"
    INDEX 01 04:40:51
  TRACK 121 AUDIO
    TITLE "4:cjc099_166"
    INDEX 01 04:40:72
  TRACK 122 AUDIO
    TITLE "0:"
    INDEX 01 04:49:50
  TRACK 123 AUDIO
    TITLE "7:cjc099_167"
    INDEX 01 04:51:19
  TRACK 124 AUDIO
    TITLE "0:"
    INDEX 01 04:52:62
  TRACK 125 AUDIO
    TITLE "6:cjc099_168"
    INDEX 01 04:53:05
  TRACK 126 AUDIO
    TITLE "0:"
    INDEX 01 04:59:48
  TRACK 127 AUDIO
    TITLE "5:cjc099_169"
    INDEX 01 05:00:22
  TRACK 128 AUDIO
    TITLE "0:"
    INDEX 01 05:01:65
  TRACK 129 AUDIO
    TITLE "4:cjc099_170"
    INDEX 01 05:02:13
  TRACK 130 AUDIO
    TITLE "0:"
    INDEX 01 05:08:69
  TRACK 131 AUDIO
    TITLE "7:cjc099_171"
    INDEX 01 05:10:42
  TRACK 132 AUDIO
    TITLE "0:"
    INDEX 01 05:12:06
  TRACK 133 AUDIO
    TITLE "6:cjc099_172"
    INDEX 01 05:12:25
  TRACK 134 AUDIO
    TITLE "0:"
    INDEX 01 05:19:31
  TRACK 135 AUDIO
    TITLE "5:cjc099_173"
    INDEX 01 05:20:01
  TRACK 136 AUDIO
    TITLE "0:"
    INDEX 01 05:21:42
  TRACK 137 AUDIO
    TITLE "4:cjc099_174"
    INDEX 01 05:21:64
  TRACK 138 AUDIO
    TITLE "0:"
    INDEX 01 05:29:00
  TRACK 139 AUDIO
    TITLE "7:cjc099_175"
    INDEX 01 05:30:45
  TRACK 140 AUDIO
    TITLE "0:"
    INDEX 01 05:31:74
  TRACK 141 AUDIO
    TITLE "6:cjc099_176"
    INDEX 01 05:32:14
  TRACK 142 AUDIO
    TITLE "0:"
    INDEX 01 05:37:72
  TRACK 143 AUDIO
    TITLE "5:cjc099_177"
    INDEX 01 05:38:44
  TRACK 144 AUDIO
    TITLE "0:"
    INDEX 01 05:40:14
  TRACK 145 AUDIO
    TITLE "4:cjc099_178"
    INDEX 01 05:40:37
  TRACK 146 AUDIO
    TITLE "0:"
    INDEX 01 05:46:17
  TRACK 147 AUDIO
    TITLE "7:cjc099_179"
    INDEX 01 05:47:63
  TRACK 148 AUDIO
    TITLE "0:"
    INDEX 01 05:49:17
  TRACK 149 AUDIO
    TITLE "6:cjc099_180"
    INDEX 01 05:49:42
  TRACK 150 AUDIO
    TITLE "0:"
    INDEX 01 05:55:29
  TRACK 151 AUDIO
    TITLE "5:cjc099_181"
    INDEX 01 05:55:74
  TRACK 152 AUDIO
    TITLE "0:"
    INDEX 01 05:57:38
  TRACK 153 AUDIO
    TITLE "4:cjc099_182"
    INDEX 01 05:57:52
  TRACK 154 AUDIO
    TITLE "0:"
    INDEX 01 06:03:74
  TRACK 155 AUDIO
    TITLE "7:cjc099_183"
    INDEX 01 06:05:45
  TRACK 156 AUDIO
    TITLE "0:"
    INDEX 01 06:06:66
  TRACK 157 AUDIO
    TITLE "6:cjc099_184"
    INDEX 01 06:07:15
  TRACK 158 AUDIO
    TITLE "0:"
    INDEX 01 06:11:48
  TRACK 159 AUDIO
    TITLE "5:cjc099_185"
    INDEX 01 06:12:18
  TRACK 160 AUDIO
    TITLE "0:"
    INDEX 01 06:13:45
  TRACK 161 AUDIO
    TITLE "4:cjc099_186"
    INDEX 01 06:13:64
  TRACK 162 AUDIO
    TITLE "0:"
    INDEX 01 06:18:36
  TRACK 163 AUDIO
    TITLE "7:cjc099_187"
    INDEX 01 06:20:10
  TRACK 164 AUDIO
    TITLE "0:"
    INDEX 01 06:21:48
  TRACK 165 AUDIO
    TITLE "6:cjc099_188"
    INDEX 01 06:21:66
  TRACK 166 AUDIO
    TITLE "0:"
    INDEX 01 06:26:71
  TRACK 167 AUDIO
    TITLE "5:cjc099_189"
    INDEX 01 06:27:45
  TRACK 168 AUDIO
    TITLE "0:"
    INDEX 01 06:29:12
  TRACK 169 AUDIO
    TITLE "4:cjc099_190"
    INDEX 01 06:29:34
  TRACK 170 AUDIO
    TITLE "0:"
    INDEX 01 06:34:51
  TRACK 171 AUDIO
    TITLE "7:cjc099_191"
    INDEX 01 06:36:26
  TRACK 172 AUDIO
    TITLE "0:"
    INDEX 01 06:37:73
  TRACK 173 AUDIO
    TITLE "6:cjc099_192"
    INDEX 01 06:38:17
  TRACK 174 AUDIO
    TITLE "0:"
    INDEX 01 06:46:09
  TRACK 175 AUDIO
    TITLE "5:cjc099_193"
    INDEX 01 06:46:56
  TRACK 176 AUDIO
    TITLE "0:"
    INDEX 01 06:48:25
  TRACK 177 AUDIO
    TITLE "4:cjc099_194"
    INDEX 01 06:48:45
  TRACK 178 AUDIO
    TITLE "0:"
    INDEX 01 06:56:70
  TRACK 179 AUDIO
    TITLE "7:cjc099_195"
    INDEX 01 06:58:40
  TRACK 180 AUDIO
    TITLE "0:"
    INDEX 01 07:00:03
  TRACK 181 AUDIO
    TITLE "6:cjc099_196"
    INDEX 01 07:00:21
  TRACK 182 AUDIO
    TITLE "0:"
    INDEX 01 07:07:29
  TRACK 183 AUDIO
    TITLE "5:cjc099_197"
    INDEX 01 07:08:01
  TRACK 184 AUDIO
    TITLE "0:"
    INDEX 01 07:09:45
  TRACK 185 AUDIO
    TITLE "4:cjc099_198"
    INDEX 01 07:09:67
  TRACK 186 AUDIO
    TITLE "0:"
    INDEX 01 07:17:19
  TRACK 187 AUDIO
    TITLE "7:cjc099_199"
    INDEX 01 07:18:66
  TRACK 188 AUDIO
    TITLE "0:"
    INDEX 01 07:20:33
  TRACK 189 AUDIO
    TITLE "6:cjc099_200"
    INDEX 01 07:20:57
  TRACK 190 AUDIO
    TITLE "0:"
    INDEX 01 07:29:21
  TRACK 191 AUDIO
    TITLE "5:cjc099_201"
    INDEX 01 07:29:69
  TRACK 192 AUDIO
    TITLE "0:"
    INDEX 01 07:31:37
  TRACK 193 AUDIO
    TITLE "4:cjc099_202"
    INDEX 01 07:31:53
  TRACK 194 AUDIO
    TITLE "0:"
    INDEX 01 07:40:11
  TRACK 195 AUDIO
    TITLE "7:cjc099_203"
    INDEX 01 07:41:57
  TRACK 196 AUDIO
    TITLE "0:"
    INDEX 01 07:43:32
  TRACK 197 AUDIO
    TITLE "6:cjc099_204"
    INDEX 01 07:43:46
  TRACK 198 AUDIO
    TITLE "0:"
    INDEX 01 07:49:64
  TRACK 199 AUDIO
    TITLE "5:cjc099_205"
    INDEX 01 07:50:44
  TRACK 200 AUDIO
    TITLE "0:"
    INDEX 01 07:52:18
  TRACK 201 AUDIO
    TITLE "4:cjc099_206"
    INDEX 01 07:52:31
  TRACK 202 AUDIO
    TITLE "0:"
    INDEX 01 07:58:55
  TRACK 203 AUDIO
    TITLE "7:cjc099_207"
    INDEX 01 08:00:27
  TRACK 204 AUDIO
    TITLE "0:"
    INDEX 01 08:02:02
  TRACK 205 AUDIO
    TITLE "6:cjc099_208"
    INDEX 01 08:02:24
  TRACK 206 AUDIO
    TITLE "0:"
    INDEX 01 08:09:49
  TRACK 207 AUDIO
    TITLE "5:cjc099_209"
    INDEX 01 08:10:19
  TRACK 208 AUDIO
    TITLE "0:"
    INDEX 01 08:11:72
  TRACK 209 AUDIO
    TITLE "4:cjc099_210"
    INDEX 01 08:12:18
  TRACK 210 AUDIO
    TITLE "0:"
    INDEX 01 08:19:52
  TRACK 211 AUDIO
    TITLE "7:cjc099_211"
    INDEX 01 08:21:17
  TRACK 212 AUDIO
    TITLE "0:"
    INDEX 01 08:22:60
  TRACK 213 AUDIO
    TITLE "6:cjc099_212"
    INDEX 01 08:23:08
  TRACK 214 AUDIO
    TITLE "0:"
    INDEX 01 08:30:69
  TRACK 215 AUDIO
    TITLE "5:cjc099_213"
    INDEX 01 08:31:39
  TRACK 216 AUDIO
    TITLE "0:"
    INDEX 01 08:33:13
  TRACK 217 AUDIO
    TITLE "4:cjc099_214"
    INDEX 01 08:33:32
  TRACK 218 AUDIO
    TITLE "0:"
    INDEX 01 08:42:06
  TRACK 219 AUDIO
    TITLE "7:cjc099_215"
    INDEX 01 08:43:46
  TRACK 220 AUDIO
    TITLE "0:"
    INDEX 01 08:45:08
  TRACK 221 AUDIO
    TITLE "6:cjc099_216"
    INDEX 01 08:45:26
  TRACK 222 AUDIO
    TITLE "0:"
    INDEX 01 08:52:39
  TRACK 223 AUDIO
    TITLE "5:cjc099_217"
    INDEX 01 08:53:09
  TRACK 224 AUDIO
    TITLE "0:"
    INDEX 01 08:54:54
  TRACK 225 AUDIO
    TITLE "4:cjc099_218"
    INDEX 01 08:55:03
  TRACK 226 AUDIO
    TITLE "0:"
    INDEX 01 09:02:26
  TRACK 227 AUDIO
    TITLE "7:cjc099_219"
    INDEX 01 09:04:01
  TRACK 228 AUDIO
    TITLE "0:"
    INDEX 01 09:05:44
  TRACK 229 AUDIO
    TITLE "6:cjc099_220"
    INDEX 01 09:05:69
  TRACK 230 AUDIO
    TITLE "0:"
    INDEX 01 09:11:66
  TRACK 231 AUDIO
    TITLE "5:cjc099_221"
    INDEX 01 09:12:36
  TRACK 232 AUDIO
    TITLE "0:"
    INDEX 01 09:14:06
  TRACK 233 AUDIO
    TITLE "4:cjc099_222"
    INDEX 01 09:14:29
  TRACK 234 AUDIO
    TITLE "0:"
    INDEX 01 09:20:57
  TRACK 235 AUDIO
    TITLE "7:cjc099_223"
    INDEX 01 09:22:27
  TRACK 236 AUDIO
    TITLE "0:"
    INDEX 01 09:23:50
  TRACK 237 AUDIO
    TITLE "6:cjc099_224"
    INDEX 01 09:23:63
  TRACK 238 AUDIO
    TITLE "0:"
    INDEX 01 09:33:01
  TRACK 239 AUDIO
    TITLE "5:cjc099_225"
    INDEX 01 09:33:44
  TRACK 240 AUDIO
    TITLE "0:"
    INDEX 01 09:34:71
  TRACK 241 AUDIO
    TITLE "4:cjc099_226"
    INDEX 01 09:35:20
  TRACK 242 AUDIO
    TITLE "0:"
    INDEX 01 09:44:54
  TRACK 243 AUDIO
    TITLE "7:cjc099_227"
    INDEX 01 09:46:23
  TRACK 244 AUDIO
    TITLE "0:"
    INDEX 01 09:47:62
  TRACK 245 AUDIO
    TITLE "6:cjc099_228"
    INDEX 01 09:48:09
  TRACK 246 AUDIO
    TITLE "0:"
    INDEX 01 09:55:56
  TRACK 247 AUDIO
    TITLE "5:cjc099_229"
    INDEX 01 09:56:26
  TRACK 248 AUDIO
    TITLE "0:"
    INDEX 01 09:58:01
  TRACK 249 AUDIO
    TITLE "4:cjc099_230"
    INDEX 01 09:58:21
  TRACK 250 AUDIO
    TITLE "0:"
    INDEX 01 10:06:06
  TRACK 251 AUDIO
    TITLE "7:cjc099_231"
    INDEX 01 10:07:51
  TRACK 252 AUDIO
    TITLE "0:"
    INDEX 01 10:09:17
  TRACK 253 AUDIO
    TITLE "6:cjc099_232"
    INDEX 01 10:09:34
  TRACK 254 AUDIO
    TITLE "0:"
    INDEX 01 10:16:03
  TRACK 255 AUDIO
    TITLE "5:cjc099_233"
    INDEX 01 10:16:48
  TRACK 256 AUDIO
    TITLE "0:"
    INDEX 01 10:18:18
  TRACK 257 AUDIO
    TITLE "4:cjc099_234"
    INDEX 01 10:18:39
  TRACK 258 AUDIO
    TITLE "0:"
    INDEX 01 10:25:00
